<svg xmlns="http://www.w3.org/2000/svg" xmlns:xlink="http://www.w3.org/1999/xlink" width="7559" zoomAndPan="magnify" viewBox="0 0 5669.25 2268.00001" height="3023" preserveAspectRatio="xMidYMid meet" version="1.0"><defs><g/><clipPath id="85b64474d4"><path d="M 531 800 L 1296 800 L 1296 1744 L 531 1744 Z M 531 800 " clip-rule="nonzero"/></clipPath><clipPath id="0d38d048d7"><path d="M 94.363281 810.347656 L 1229.722656 284.558594 L 1772.210938 1455.972656 L 636.847656 1981.761719 Z M 94.363281 810.347656 " clip-rule="nonzero"/></clipPath><clipPath id="cf8a51f8f5"><path d="M 94.363281 810.347656 L 1229.722656 284.558594 L 1772.210938 1455.972656 L 636.847656 1981.761719 Z M 94.363281 810.347656 " clip-rule="nonzero"/></clipPath><clipPath id="aa032748a1"><path d="M 691 963 L 1155 963 L 1155 1359 L 691 1359 Z M 691 963 " clip-rule="nonzero"/></clipPath><clipPath id="c077d0f335"><path d="M 94.363281 810.347656 L 1229.722656 284.558594 L 1772.210938 1455.972656 L 636.847656 1981.761719 Z M 94.363281 810.347656 " clip-rule="nonzero"/></clipPath><clipPath id="98b0828aa5"><path d="M 94.363281 810.347656 L 1229.722656 284.558594 L 1772.210938 1455.972656 L 636.847656 1981.761719 Z M 94.363281 810.347656 " clip-rule="nonzero"/></clipPath><clipPath id="a1cf0306ff"><path d="M 658 545 L 779 545 L 779 781 L 658 781 Z M 658 545 " clip-rule="nonzero"/></clipPath><clipPath id="ba7bb7e951"><path d="M 94.363281 810.347656 L 1229.722656 284.558594 L 1772.210938 1455.972656 L 636.847656 1981.761719 Z M 94.363281 810.347656 " clip-rule="nonzero"/></clipPath><clipPath id="3df6db6033"><path d="M 94.363281 810.347656 L 1229.722656 284.558594 L 1772.210938 1455.972656 L 636.847656 1981.761719 Z M 94.363281 810.347656 " clip-rule="nonzero"/></clipPath><clipPath id="eb16718b91"><path d="M 357 732 L 568 732 L 568 894 L 357 894 Z M 357 732 " clip-rule="nonzero"/></clipPath><clipPath id="9e06a56ca1"><path d="M 94.363281 810.347656 L 1229.722656 284.558594 L 1772.210938 1455.972656 L 636.847656 1981.761719 Z M 94.363281 810.347656 " clip-rule="nonzero"/></clipPath><clipPath id="01dd1d1577"><path d="M 94.363281 810.347656 L 1229.722656 284.558594 L 1772.210938 1455.972656 L 636.847656 1981.761719 Z M 94.363281 810.347656 " clip-rule="nonzero"/></clipPath><clipPath id="3f4d033802"><path d="M 219 1065 L 475 1065 L 475 1120 L 219 1120 Z M 219 1065 " clip-rule="nonzero"/></clipPath><clipPath id="f57fb74c3b"><path d="M 94.363281 810.347656 L 1229.722656 284.558594 L 1772.210938 1455.972656 L 636.847656 1981.761719 Z M 94.363281 810.347656 " clip-rule="nonzero"/></clipPath><clipPath id="b8a676b25f"><path d="M 94.363281 810.347656 L 1229.722656 284.558594 L 1772.210938 1455.972656 L 636.847656 1981.761719 Z M 94.363281 810.347656 " clip-rule="nonzero"/></clipPath><clipPath id="f481f9f11a"><path d="M 975 438 L 1012 438 L 1012 696 L 975 696 Z M 975 438 " clip-rule="nonzero"/></clipPath><clipPath id="a2e53ce10d"><path d="M 94.363281 810.347656 L 1229.722656 284.558594 L 1772.210938 1455.972656 L 636.847656 1981.761719 Z M 94.363281 810.347656 " clip-rule="nonzero"/></clipPath><clipPath id="cfa8c3bb25"><path d="M 94.363281 810.347656 L 1229.722656 284.558594 L 1772.210938 1455.972656 L 636.847656 1981.761719 Z M 94.363281 810.347656 " clip-rule="nonzero"/></clipPath><clipPath id="3500a4a434"><path d="M 1208 549 L 1354 549 L 1354 771 L 1208 771 Z M 1208 549 " clip-rule="nonzero"/></clipPath><clipPath id="4ab6e450e8"><path d="M 94.363281 810.347656 L 1229.722656 284.558594 L 1772.210938 1455.972656 L 636.847656 1981.761719 Z M 94.363281 810.347656 " clip-rule="nonzero"/></clipPath><clipPath id="a7885cac45"><path d="M 94.363281 810.347656 L 1229.722656 284.558594 L 1772.210938 1455.972656 L 636.847656 1981.761719 Z M 94.363281 810.347656 " clip-rule="nonzero"/></clipPath></defs><g clip-path="url(#85b64474d4)"><g clip-path="url(#0d38d048d7)"><g clip-path="url(#cf8a51f8f5)"><path fill="#000000" d="M 1236.515625 963.101562 C 1228.140625 949.054688 1215.492188 927.804688 1196.789062 905.34375 C 1174.382812 878.328125 1148.65625 856.261719 1120.332031 839.628906 C 1085.804688 819.328125 1046.976562 806.847656 1004.980469 802.488281 C 970.953125 798.945312 934.667969 800.738281 897.132812 807.785156 C 833.171875 819.753906 784.355469 843.40625 770.953125 850.324219 C 770.726562 850.429688 770.457031 850.554688 770.230469 850.660156 C 756.238281 856.425781 706.625 878.359375 656.125 919.394531 C 626.472656 943.464844 601.636719 969.976562 582.328125 998.21875 C 558.492188 1033.066406 542.894531 1070.753906 536.042969 1110.21875 C 530.40625 1142.574219 530.644531 1176.445312 536.683594 1210.984375 C 541.761719 1239.757812 549.746094 1263.167969 555.039062 1278.640625 L 555.699219 1280.535156 C 561.160156 1296.480469 577.09375 1338.371094 607.457031 1382.925781 C 624.4375 1407.832031 643.570312 1430.148438 664.320312 1449.1875 C 689.390625 1472.21875 717.054688 1490.75 746.605469 1504.339844 C 803.222656 1530.300781 848.441406 1530.695312 884.796875 1530.957031 C 924.636719 1531.257812 953.382812 1531.472656 983.605469 1560.640625 C 986.492188 1563.429688 989.285156 1566.371094 991.941406 1569.375 L 988.542969 1570.945312 C 979.308594 1575.222656 975.273438 1586.21875 979.550781 1595.457031 L 988.566406 1614.925781 C 990.097656 1618.230469 992.472656 1620.867188 995.34375 1622.675781 C 994.863281 1626.03125 995.339844 1629.550781 996.871094 1632.855469 L 1005.886719 1652.324219 C 1007.417969 1655.628906 1009.792969 1658.265625 1012.664062 1660.070312 C 1012.183594 1663.429688 1012.660156 1666.949219 1014.1875 1670.253906 L 1023.207031 1689.722656 C 1027.292969 1698.550781 1037.53125 1702.609375 1046.515625 1699.214844 C 1053.269531 1713.082031 1064.144531 1727.78125 1084.757812 1736.550781 C 1111.382812 1747.859375 1147.46875 1745.394531 1181.214844 1729.929688 C 1181.441406 1729.824219 1181.625 1729.738281 1181.847656 1729.636719 C 1197.015625 1722.609375 1210.847656 1713.292969 1221.859375 1702.636719 C 1234.160156 1690.730469 1242.632812 1677.675781 1247.085938 1663.902344 C 1254.078125 1642.078125 1249.03125 1623.578125 1241.882812 1608.742188 C 1250.152344 1604.03125 1253.609375 1593.6875 1249.542969 1584.90625 L 1240.523438 1565.4375 C 1238.996094 1562.132812 1236.617188 1559.492188 1233.746094 1557.6875 C 1234.226562 1554.332031 1233.753906 1550.8125 1232.222656 1547.507812 L 1223.207031 1528.039062 C 1221.675781 1524.734375 1219.296875 1522.09375 1216.429688 1520.289062 C 1216.910156 1516.933594 1216.433594 1513.414062 1214.902344 1510.109375 L 1205.886719 1490.640625 C 1201.609375 1481.402344 1190.613281 1477.367188 1181.375 1481.644531 L 1178.253906 1483.09375 C 1177.90625 1480.449219 1177.609375 1477.78125 1177.417969 1475.121094 C 1174.1875 1433.234375 1192.269531 1410.890625 1217.261719 1379.964844 C 1240.304688 1351.476562 1268.9375 1316.058594 1284.785156 1254.941406 C 1293.195312 1222.398438 1296.585938 1188.164062 1294.800781 1153.195312 C 1293.335938 1124.511719 1288.394531 1095.074219 1280.140625 1065.738281 C 1265.960938 1015.285156 1245.613281 978.355469 1237.511719 964.785156 Z M 1213.503906 1554.582031 L 1023.433594 1642.601562 L 1015.675781 1625.851562 L 1031.792969 1618.386719 L 1205.699219 1537.847656 L 1213.457031 1554.601562 Z M 1048.605469 1676.417969 C 1048.40625 1676.457031 1048.222656 1676.542969 1047.996094 1676.644531 C 1047.386719 1676.875 1046.773438 1677.210938 1046.253906 1677.507812 L 1040.773438 1680.046875 L 1033.015625 1663.292969 L 1044.5625 1657.945312 C 1044.5625 1657.945312 1044.5625 1657.945312 1044.605469 1657.925781 C 1044.605469 1657.925781 1044.605469 1657.925781 1044.652344 1657.90625 L 1210.816406 1580.953125 C 1210.816406 1580.953125 1210.816406 1580.953125 1210.859375 1580.933594 C 1210.859375 1580.933594 1210.859375 1580.933594 1210.90625 1580.914062 L 1223.175781 1575.230469 L 1230.933594 1591.980469 L 1225.183594 1594.644531 C 1224.507812 1594.847656 1223.875 1595.140625 1223.214844 1595.5 C 1223.125 1595.542969 1223.101562 1595.609375 1223.011719 1595.652344 Z M 1228.113281 1657.84375 C 1221.390625 1678.828125 1201.03125 1698.867188 1173.550781 1711.59375 C 1173.367188 1711.679688 1173.1875 1711.761719 1173.007812 1711.847656 C 1144.238281 1725.003906 1114.230469 1727.410156 1092.648438 1718.210938 C 1080.261719 1712.953125 1071.648438 1704.566406 1064.828125 1690.902344 L 1223.882812 1617.242188 C 1231.175781 1632.394531 1232.371094 1644.597656 1228.113281 1657.84375 Z M 1196.183594 1517.183594 L 1006.113281 1605.203125 L 998.355469 1588.453125 L 1011.847656 1582.203125 C 1011.894531 1582.183594 1011.894531 1582.183594 1011.9375 1582.160156 L 1174.84375 1506.71875 C 1174.84375 1506.71875 1174.886719 1506.699219 1174.886719 1506.699219 C 1174.886719 1506.699219 1174.933594 1506.679688 1174.933594 1506.679688 L 1188.378906 1500.453125 L 1196.140625 1517.203125 Z M 1265.492188 1249.964844 C 1250.773438 1306.875 1224.761719 1339.042969 1201.785156 1367.445312 C 1189.128906 1383.09375 1177.167969 1397.871094 1168.867188 1414.855469 C 1159.402344 1434.195312 1155.800781 1453.84375 1157.59375 1476.714844 C 1157.976562 1481.816406 1158.625 1486.902344 1159.460938 1491.90625 L 1010.773438 1560.761719 C 1006.679688 1555.730469 1002.25 1550.90625 997.542969 1546.324219 C 981.03125 1530.382812 963.597656 1520.640625 942.605469 1515.679688 C 924.207031 1511.332031 905.167969 1511.1875 885.015625 1511.007812 C 848.8125 1510.726562 807.703125 1510.410156 754.984375 1486.21875 C 636.289062 1431.761719 586.9375 1310.113281 574.664062 1274.117188 L 573.984375 1272.175781 C 563.351562 1241.140625 543.585938 1183.375 555.71875 1113.640625 C 583.652344 953.230469 758.070312 877.242188 777.847656 869.128906 C 778.59375 868.839844 779.363281 868.480469 780.109375 868.082031 C 799.136719 858.226562 969.859375 774.378906 1110.261719 856.832031 C 1171.359375 892.703125 1202.582031 945.164062 1219.375 973.347656 L 1220.394531 975.078125 C 1233.960938 997.71875 1299.707031 1117.601562 1265.492188 1249.964844 Z M 1265.492188 1249.964844 " fill-opacity="1" fill-rule="nonzero"/></g></g></g><g clip-path="url(#aa032748a1)"><g clip-path="url(#c077d0f335)"><g clip-path="url(#98b0828aa5)"><path fill="#000000" d="M 1124.1875 1092.542969 C 1116.34375 1065.988281 1092.53125 1003.882812 1036.316406 976.414062 C 996.601562 957.03125 949.046875 958.710938 894.898438 981.421875 C 874.671875 978.46875 854.796875 980.910156 835.765625 988.734375 C 811.695312 998.617188 788.1875 1017.3125 765.945312 1044.328125 C 748.054688 1050.578125 737.519531 1062.496094 733.914062 1066.585938 C 732.109375 1068.628906 725.8125 1076.164062 720.476562 1087.433594 C 713.253906 1102.710938 710.765625 1118.710938 713.28125 1133.765625 C 713.679688 1136.167969 714.1875 1138.570312 714.851562 1140.957031 C 703.390625 1154.675781 695.382812 1173.121094 692.523438 1192.59375 C 688.980469 1216.886719 693.40625 1240.570312 705.292969 1261.128906 C 723.589844 1292.6875 743.644531 1314.742188 766.695312 1328.535156 C 779.042969 1335.960938 792.417969 1340.980469 806.453125 1343.5 C 819.289062 1345.804688 833.074219 1346.128906 847.503906 1344.394531 C 859.421875 1354.933594 872.890625 1359.800781 887.675781 1358.835938 C 895.574219 1358.316406 903.742188 1356.125 912.117188 1352.246094 C 925.203125 1346.1875 938.8125 1336.035156 952.855469 1321.835938 C 993.410156 1319.878906 1031.152344 1311.253906 1062.210938 1296.871094 C 1062.4375 1296.765625 1062.707031 1296.640625 1062.933594 1296.535156 C 1096.511719 1280.820312 1121.804688 1258.496094 1136.082031 1231.976562 C 1144.308594 1216.730469 1150.34375 1197.109375 1153.117188 1176.746094 C 1155.941406 1156.246094 1155.144531 1136.710938 1150.996094 1121.699219 C 1145.625 1102.027344 1133.757812 1094.929688 1124.1875 1092.542969 Z M 1027.5625 994.324219 C 1073.394531 1016.703125 1094.976562 1066.753906 1103.417969 1092.8125 C 1100.179688 1093.542969 1096.84375 1094.648438 1093.433594 1095.953125 C 1070.441406 1052.714844 1046.871094 1021.179688 1023.355469 1002.210938 C 1011.058594 992.289062 999.6875 986.613281 989.664062 983.613281 C 1003.152344 985.066406 1015.792969 988.613281 1027.5625 994.324219 Z M 934.125 993.222656 C 932.140625 992.382812 930.089844 991.515625 927.996094 990.671875 C 934.371094 988.765625 940.601562 987.253906 946.6875 986.03125 C 942.363281 987.976562 938.09375 990.394531 934.125 993.222656 Z M 722.582031 1251.089844 C 702.183594 1215.832031 711.996094 1172.191406 733.257812 1150.304688 C 733.304688 1150.28125 733.304688 1150.28125 733.328125 1150.214844 C 733.328125 1150.214844 733.375 1150.195312 733.375 1150.195312 C 740.765625 1142.648438 755.742188 1131.53125 774.011719 1140.941406 C 784.851562 1146.535156 791.09375 1152.773438 792.542969 1159.46875 C 795.167969 1171.78125 782.710938 1187.390625 773.59375 1198.816406 C 771.019531 1202.042969 768.539062 1205.117188 766.601562 1207.9375 C 763.410156 1212.441406 764.539062 1218.679688 769.023438 1221.828125 C 773.523438 1225.023438 779.765625 1223.894531 782.914062 1219.410156 C 784.542969 1217.117188 786.796875 1214.257812 789.160156 1211.292969 C 800.738281 1196.75 816.648438 1176.84375 812.066406 1155.320312 C 809.304688 1142.46875 799.582031 1131.683594 783.160156 1123.179688 C 766.5625 1114.644531 748.46875 1115.710938 732.4375 1125.5 C 730.757812 1101.09375 746.960938 1081.933594 748.902344 1079.714844 C 751.746094 1076.472656 760.453125 1066.667969 774.691406 1062.382812 L 774.738281 1062.363281 C 774.738281 1062.363281 774.78125 1062.339844 774.78125 1062.339844 L 775.367188 1062.179688 C 779.375 1060.984375 783.859375 1059.621094 787.585938 1060.425781 C 799.609375 1062.996094 809.324219 1078.511719 810.707031 1097.171875 C 811.101562 1102.652344 815.886719 1106.8125 821.414062 1106.398438 C 826.894531 1106.003906 831.058594 1101.21875 830.640625 1095.691406 C 828.707031 1069.3125 814.222656 1047.648438 794.910156 1041.691406 C 826.933594 1008.605469 859.652344 995.433594 894.542969 1001.433594 C 903.316406 1002.925781 911.234375 1005.417969 918.605469 1008.273438 C 913.816406 1014.667969 910.480469 1021.714844 908.671875 1029.09375 C 907.910156 1032.195312 901.882812 1059.785156 920.730469 1077.449219 C 931.152344 1087.25 947.078125 1091.476562 963.320312 1088.796875 C 969.648438 1087.734375 975.421875 1085.71875 980.375 1082.875 C 980.917969 1089.992188 979.445312 1098.207031 974.722656 1106.058594 C 969.882812 1114.128906 962.4375 1120.492188 952.703125 1125 C 939.890625 1130.933594 923.15625 1133.625 903.402344 1132.765625 C 877.519531 1131.609375 858.324219 1138.132812 846.34375 1152.039062 C 832.214844 1168.425781 831.554688 1191.222656 834.179688 1209.359375 C 826.320312 1215.308594 819.917969 1222.617188 815.472656 1230.945312 C 808.40625 1244.0625 806.261719 1258.910156 809.058594 1275.15625 C 811.820312 1290.976562 819.398438 1307.8125 831.597656 1325.367188 C 787.148438 1326.15625 752.171875 1302.160156 722.582031 1251.089844 Z M 1131.8125 1127.0625 C 1138.964844 1152.835938 1133.015625 1195.675781 1118.574219 1222.546875 C 1096.328125 1263.914062 1041.304688 1292.695312 972.097656 1300.332031 C 992.355469 1275.332031 1005.8125 1251.671875 1006.378906 1250.640625 C 1009.113281 1245.855469 1007.394531 1239.777344 1002.609375 1237.042969 C 997.828125 1234.308594 991.746094 1236.027344 989.015625 1240.808594 C 988.851562 1241.050781 975.109375 1265.285156 955.070312 1289.6875 C 950.414062 1295.308594 945.882812 1300.484375 941.34375 1305.171875 C 941.273438 1305.257812 941.183594 1305.300781 941.160156 1305.367188 C 920.996094 1326.417969 902.300781 1337.933594 886.53125 1338.914062 C 873.605469 1339.730469 862.234375 1333.339844 851.757812 1319.386719 C 828.46875 1288.214844 822.007812 1260.964844 833 1240.535156 C 843.378906 1221.265625 867.742188 1212.019531 885.390625 1213.082031 C 900.832031 1214.015625 915.386719 1229.050781 915.945312 1244.625 C 916.496094 1260.539062 901.742188 1271.660156 875.496094 1275.070312 C 870.050781 1275.777344 866.152344 1280.773438 866.878906 1286.265625 C 867.585938 1291.710938 872.582031 1295.609375 878.074219 1294.882812 C 897.277344 1292.421875 912.105469 1286.324219 922.191406 1276.871094 C 931.609375 1268 936.347656 1256.621094 935.945312 1243.996094 C 935.070312 1218.007812 912.484375 1194.761719 886.632812 1193.207031 C 875.714844 1192.542969 864.066406 1194.585938 853.132812 1198.878906 C 852.402344 1187.558594 853.695312 1174.203125 861.445312 1165.171875 C 869.238281 1156.117188 883.046875 1151.976562 902.511719 1152.808594 C 959.71875 1155.347656 983.035156 1131.132812 991.800781 1116.460938 C 997.230469 1107.402344 1000.195312 1097.175781 1000.347656 1086.824219 C 1000.46875 1079.015625 998.960938 1071.246094 995.992188 1064.59375 C 999.097656 1054.796875 997.386719 1043.382812 991.175781 1035.316406 C 981.828125 1023.203125 964.011719 1019.523438 947.800781 1026.3125 C 942.738281 1028.4375 940.328125 1034.28125 942.476562 1039.390625 C 944.601562 1044.457031 950.445312 1046.863281 955.554688 1044.71875 C 964.347656 1041.03125 972.183594 1043.339844 975.382812 1047.523438 C 978.242188 1051.203125 978.097656 1056.824219 976.34375 1060.164062 L 976.179688 1060.40625 C 973.867188 1064.554688 967.539062 1067.980469 959.976562 1069.226562 C 949.949219 1070.847656 940.109375 1068.476562 934.269531 1062.988281 C 923.5625 1052.933594 927.921875 1034.089844 927.949219 1033.914062 C 929.859375 1026.15625 934.820312 1018.46875 941.945312 1012.363281 C 941.992188 1012.34375 941.992188 1012.34375 942.015625 1012.277344 C 948.363281 1006.863281 955.820312 1003.023438 963.097656 1001.523438 C 977.632812 998.476562 993.679688 1003.914062 1010.8125 1017.753906 C 1032.214844 1035.003906 1054.039062 1064.433594 1075.722656 1105.199219 C 1062.789062 1113.609375 1055.078125 1122.84375 1048.132812 1131.117188 C 1043.363281 1136.84375 1038.871094 1142.226562 1032.847656 1147.269531 C 1015.925781 1161.429688 990.726562 1167.324219 957.964844 1164.738281 C 952.484375 1164.304688 947.675781 1168.402344 947.242188 1173.882812 C 946.808594 1179.359375 950.90625 1184.171875 956.386719 1184.601562 C 994.558594 1187.597656 1024.609375 1180.171875 1045.652344 1162.566406 C 1052.980469 1156.421875 1058.28125 1150.0625 1063.421875 1143.941406 C 1071.269531 1134.535156 1078.703125 1125.648438 1093.511719 1117.855469 C 1101.996094 1113.375 1109.699219 1111.128906 1115.761719 1111.398438 C 1115.761719 1111.398438 1115.808594 1111.378906 1115.828125 1111.425781 C 1121.382812 1111.65625 1128.128906 1113.644531 1131.8125 1127.0625 Z M 1131.8125 1127.0625 " fill-opacity="1" fill-rule="nonzero"/></g></g></g><g clip-path="url(#a1cf0306ff)"><g clip-path="url(#ba7bb7e951)"><g clip-path="url(#3df6db6033)"><path fill="#000000" d="M 772.546875 780.03125 C 777.527344 777.722656 779.714844 771.761719 777.410156 766.78125 L 677.601562 551.265625 C 675.296875 546.285156 669.335938 544.097656 664.355469 546.40625 C 659.375 548.710938 657.1875 554.671875 659.492188 559.652344 L 759.296875 775.167969 C 761.625 780.195312 767.519531 782.359375 772.546875 780.03125 Z M 772.546875 780.03125 " fill-opacity="1" fill-rule="nonzero"/></g></g></g><g clip-path="url(#eb16718b91)"><g clip-path="url(#9e06a56ca1)"><g clip-path="url(#01dd1d1577)"><path fill="#000000" d="M 552.007812 891.785156 C 555.023438 894.019531 558.941406 894.292969 562.15625 892.804688 C 563.605469 892.132812 564.933594 891.078125 565.980469 889.660156 C 569.261719 885.226562 568.351562 878.992188 563.917969 875.710938 L 372.972656 734.460938 C 368.539062 731.179688 362.304688 732.089844 359.023438 736.523438 C 355.746094 740.957031 356.652344 747.1875 361.085938 750.46875 Z M 552.007812 891.785156 " fill-opacity="1" fill-rule="nonzero"/></g></g></g><g clip-path="url(#3f4d033802)"><g clip-path="url(#f57fb74c3b)"><g clip-path="url(#b8a676b25f)"><path fill="#000000" d="M 465.9375 1100.011719 L 230.992188 1065.246094 C 225.546875 1064.414062 220.480469 1068.191406 219.648438 1073.636719 C 218.8125 1079.082031 222.589844 1084.148438 228.035156 1084.984375 L 463.003906 1119.792969 C 465.003906 1120.078125 466.953125 1119.777344 468.675781 1118.980469 C 471.617188 1117.617188 473.84375 1114.828125 474.347656 1111.40625 C 475.160156 1105.914062 471.382812 1100.847656 465.9375 1100.011719 Z M 465.9375 1100.011719 " fill-opacity="1" fill-rule="nonzero"/></g></g></g><g clip-path="url(#f481f9f11a)"><g clip-path="url(#a2e53ce10d)"><g clip-path="url(#cfa8c3bb25)"><path fill="#000000" d="M 1002.015625 438.804688 C 996.511719 438.441406 991.789062 442.609375 991.421875 448.109375 L 975.617188 685.054688 C 975.25 690.558594 979.417969 695.28125 984.921875 695.644531 C 986.636719 695.785156 988.296875 695.457031 989.792969 694.765625 C 993.007812 693.277344 995.289062 690.128906 995.578125 686.367188 L 1011.316406 449.398438 C 1011.640625 443.917969 1007.515625 439.171875 1002.015625 438.804688 Z M 1002.015625 438.804688 " fill-opacity="1" fill-rule="nonzero"/></g></g></g><g clip-path="url(#3500a4a434)"><g clip-path="url(#4ab6e450e8)"><g clip-path="url(#a7885cac45)"><path fill="#000000" d="M 1349.199219 550.535156 C 1344.507812 547.652344 1338.347656 549.074219 1335.460938 553.765625 L 1210.03125 755.476562 C 1207.144531 760.167969 1208.566406 766.328125 1213.257812 769.214844 C 1216.214844 771.085938 1219.761719 771.148438 1222.707031 769.785156 C 1224.425781 768.988281 1225.914062 767.695312 1226.992188 765.984375 L 1352.425781 564.273438 C 1355.265625 559.605469 1353.84375 553.445312 1349.199219 550.535156 Z M 1349.199219 550.535156 " fill-opacity="1" fill-rule="nonzero"/></g></g></g><g fill="#000000" fill-opacity="1"><g transform="translate(1582.298446, 1418.316371)"><g><path d="M 69.632812 212.292969 L 442.417969 -373.636719 L 376.183594 -373.636719 L 219.9375 -123.128906 L 149.453125 -373.636719 L 81.519531 -373.636719 L 176.628906 -61.140625 L -2.546875 212.292969 Z M 69.632812 212.292969 "/></g></g></g><g fill="#000000" fill-opacity="1"><g transform="translate(1943.171135, 1418.316371)"><g><path d="M 405.90625 -188.515625 C 399.113281 -152.003906 378.730469 -119.734375 347.3125 -93.410156 C 315.894531 -67.085938 281.078125 -53.496094 243.714844 -53.496094 C 206.347656 -53.496094 176.628906 -67.085938 155.398438 -93.410156 C 134.167969 -119.734375 127.375 -152.003906 134.167969 -188.515625 C 141.8125 -225.878906 161.34375 -258.148438 192.761719 -284.472656 C 224.183594 -310.796875 259 -324.382812 296.363281 -324.382812 C 333.726562 -324.382812 363.445312 -310.796875 384.675781 -284.472656 C 405.90625 -258.148438 413.546875 -225.878906 405.90625 -188.515625 Z M 465.347656 -188.515625 C 475.539062 -242.015625 465.347656 -287.871094 434.777344 -326.082031 C 404.207031 -364.296875 361.75 -383.828125 308.25 -383.828125 C 254.753906 -383.828125 204.652344 -364.296875 158.796875 -326.082031 C 112.941406 -287.871094 84.917969 -242.015625 74.726562 -188.515625 C 64.539062 -134.167969 74.726562 -88.3125 105.296875 -50.949219 C 136.71875 -12.738281 179.175781 5.945312 232.671875 5.945312 C 286.171875 5.945312 335.421875 -12.738281 381.277344 -50.949219 C 427.132812 -88.3125 455.15625 -134.167969 465.347656 -188.515625 Z M 465.347656 -188.515625 "/></g></g></g><g fill="#000000" fill-opacity="1"><g transform="translate(2410.182976, 1418.316371)"><g><path d="M 334.574219 -63.6875 L 321.835938 0 L 381.277344 0 L 454.308594 -373.636719 L 394.867188 -373.636719 L 364.296875 -217.386719 C 354.105469 -165.589844 336.273438 -124.828125 311.648438 -95.957031 C 287.019531 -67.085938 251.355469 -51.800781 204.652344 -51.800781 C 179.175781 -51.800781 162.191406 -60.292969 154.550781 -77.273438 C 146.90625 -94.257812 145.207031 -115.488281 150.304688 -140.113281 L 196.160156 -373.636719 L 136.71875 -373.636719 L 90.863281 -140.113281 C 82.371094 -96.804688 87.464844 -61.140625 105.296875 -33.96875 C 123.128906 -6.792969 153.699219 7.640625 195.308594 7.640625 C 250.507812 7.640625 297.210938 -16.132812 334.574219 -63.6875 Z M 334.574219 -63.6875 "/></g></g></g><g fill="#000000" fill-opacity="1"><g transform="translate(2842.381295, 1418.316371)"><g><path d="M 313.34375 -296.363281 L 328.628906 -373.636719 C 317.589844 -378.730469 304.851562 -381.277344 292.117188 -381.277344 C 250.507812 -381.277344 214.839844 -358.351562 185.96875 -311.648438 L 180.875 -296.363281 L 196.160156 -373.636719 L 136.71875 -373.636719 L 63.6875 0 L 123.128906 0 L 159.644531 -186.816406 C 165.589844 -217.386719 178.328125 -245.410156 197.007812 -270.039062 C 207.199219 -282.773438 218.238281 -293.8125 230.976562 -302.304688 C 243.714844 -310.796875 258.148438 -315.042969 273.433594 -315.042969 C 288.71875 -315.042969 302.304688 -309.097656 313.34375 -296.363281 Z M 313.34375 -296.363281 "/></g></g></g><g fill="#000000" fill-opacity="1"><g transform="translate(3106.455327, 1418.316371)"><g><path d="M 316.742188 -164.738281 L 316.742188 -213.144531 L 32.269531 -213.144531 L 32.269531 -164.738281 Z M 316.742188 -164.738281 "/></g></g></g><g fill="#000000" fill-opacity="1"><g transform="translate(3454.591377, 1418.316371)"><g><path d="M 397.414062 -186.816406 C 390.621094 -150.304688 371.089844 -118.882812 340.519531 -91.710938 C 309.949219 -64.539062 276.832031 -50.949219 239.46875 -50.949219 C 202.101562 -50.949219 173.230469 -64.539062 152.851562 -91.710938 C 133.320312 -118.882812 127.375 -150.304688 134.167969 -186.816406 C 140.964844 -223.332031 159.644531 -254.753906 190.214844 -281.925781 C 220.785156 -309.097656 254.753906 -322.6875 292.117188 -322.6875 C 329.480469 -322.6875 357.503906 -309.097656 377.882812 -281.925781 C 397.414062 -254.753906 404.207031 -223.332031 397.414062 -186.816406 Z M 378.730469 212.292969 L 493.371094 -373.636719 L 433.929688 -373.636719 L 421.191406 -309.949219 C 418.644531 -314.195312 415.246094 -318.441406 412.699219 -322.6875 C 385.523438 -362.597656 345.613281 -382.128906 293.8125 -382.128906 C 242.015625 -382.128906 195.308594 -362.597656 152.003906 -322.6875 C 110.394531 -284.472656 84.917969 -238.617188 74.726562 -186.816406 C 64.539062 -135.019531 72.179688 -89.164062 99.351562 -50.949219 C 126.527344 -11.039062 166.4375 8.492188 218.238281 8.492188 C 270.039062 8.492188 316.742188 -11.039062 360.050781 -50.949219 C 364.296875 -55.195312 369.390625 -59.441406 373.636719 -63.6875 L 319.289062 212.292969 Z M 378.730469 212.292969 "/></g></g></g><g fill="#000000" fill-opacity="1"><g transform="translate(3938.58541, 1418.316371)"><g><path d="M 334.574219 -63.6875 L 321.835938 0 L 381.277344 0 L 454.308594 -373.636719 L 394.867188 -373.636719 L 364.296875 -217.386719 C 354.105469 -165.589844 336.273438 -124.828125 311.648438 -95.957031 C 287.019531 -67.085938 251.355469 -51.800781 204.652344 -51.800781 C 179.175781 -51.800781 162.191406 -60.292969 154.550781 -77.273438 C 146.90625 -94.257812 145.207031 -115.488281 150.304688 -140.113281 L 196.160156 -373.636719 L 136.71875 -373.636719 L 90.863281 -140.113281 C 82.371094 -96.804688 87.464844 -61.140625 105.296875 -33.96875 C 123.128906 -6.792969 153.699219 7.640625 195.308594 7.640625 C 250.507812 7.640625 297.210938 -16.132812 334.574219 -63.6875 Z M 334.574219 -63.6875 "/></g></g></g><g fill="#000000" fill-opacity="1"><g transform="translate(4370.783728, 1418.316371)"><g><path d="M 221.632812 -502.710938 C 215.691406 -510.355469 207.199219 -513.75 197.007812 -513.75 C 186.816406 -513.75 176.628906 -510.355469 168.136719 -502.710938 C 159.644531 -495.070312 153.699219 -485.726562 152.003906 -475.539062 C 150.304688 -465.347656 152.003906 -456.855469 157.945312 -449.214844 C 163.890625 -441.570312 172.382812 -438.175781 182.574219 -438.175781 C 192.761719 -438.175781 202.953125 -441.570312 211.445312 -449.214844 C 219.9375 -456.855469 225.878906 -465.347656 227.578125 -475.539062 C 229.277344 -485.726562 227.578125 -495.070312 221.632812 -502.710938 Z M 127.375 0 L 200.40625 -373.636719 L 140.964844 -373.636719 L 67.933594 0 Z M 127.375 0 "/></g></g></g><g fill="#000000" fill-opacity="1"><g transform="translate(4565.230448, 1418.316371)"><g><path d="M 8.492188 0 L 377.882812 0 L 388.921875 -55.195312 L 133.320312 -55.195312 L 439.871094 -373.636719 L 95.957031 -373.636719 L 84.917969 -318.441406 L 315.042969 -318.441406 Z M 8.492188 0 "/></g></g></g><g fill="#000000" fill-opacity="1"><g transform="translate(4951.576667, 1418.316371)"><g><path d="M 8.492188 0 L 377.882812 0 L 388.921875 -55.195312 L 133.320312 -55.195312 L 439.871094 -373.636719 L 95.957031 -373.636719 L 84.917969 -318.441406 L 315.042969 -318.441406 Z M 8.492188 0 "/></g></g></g></svg>